<?xml version="1.0" standalone="no"?>
<!DOCTYPE svg PUBLIC "-//W3C//DTD SVG 20010904//EN"
 "http://www.w3.org/TR/2001/REC-SVG-20010904/DTD/svg10.dtd">
<svg version="1.0" xmlns="http://www.w3.org/2000/svg"
 width="512.000000pt" height="512.000000pt" viewBox="0 0 512.000000 512.000000"
 preserveAspectRatio="xMidYMid meet">

<g transform="translate(0.000000,512.000000) scale(0.100000,-0.100000)"
fill="#000000" stroke="none">
<path d="M2380 5114 c-519 -46 -963 -214 -1367 -515 -126 -94 -398 -366 -492
-492 -215 -288 -369 -614 -449 -952 -52 -217 -66 -344 -66 -595 0 -416 73
-741 248 -1106 137 -283 268 -466 501 -699 233 -233 416 -364 699 -501 365
-175 690 -248 1106 -248 416 0 741 73 1106 248 283 137 466 268 699 501 233
233 364 416 501 699 117 245 191 489 231 761 23 166 23 524 0 690 -64 440
-232 845 -498 1202 -94 126 -366 398 -492 492 -352 262 -747 428 -1172 492
-125 19 -451 32 -555 23z m500 -509 c434 -72 826 -273 1134 -581 270 -270 459
-601 550 -963 81 -319 81 -683 0 -1002 -182 -725 -756 -1307 -1474 -1498 -410
-109 -839 -91 -1230 51 -592 214 -1066 698 -1264 1289 -77 230 -106 412 -106
659 0 465 153 909 439 1275 76 97 85 121 64 162 -13 26 -12 28 43 84 56 56 56
56 85 42 41 -20 65 -12 140 48 243 195 530 335 829 404 92 21 140 28 310 49
72 9 389 -4 480 -19z"/>
<path d="M2501 4434 c-19 -24 -21 -40 -21 -160 0 -154 17 -135 -135 -153 -460
-55 -890 -340 -1143 -759 -102 -168 -180 -393 -203 -587 -18 -152 1 -135 -153
-135 -120 0 -136 -2 -160 -21 -34 -27 -37 -86 -5 -115 18 -16 42 -20 162 -24
l142 -5 11 -100 c19 -171 64 -330 139 -491 57 -123 102 -151 160 -101 37 31
34 67 -13 167 -90 192 -134 388 -135 595 -1 156 16 276 55 408 138 468 497
827 965 965 132 39 252 56 408 55 209 -1 394 -43 601 -137 100 -46 130 -48
160 -14 22 23 23 80 4 104 -19 23 -172 94 -275 127 -115 38 -206 58 -320 71
l-100 11 -5 142 c-4 120 -8 144 -24 162 -29 32 -88 29 -115 -5z"/>
<path d="M2955 3419 c-435 -237 -797 -438 -807 -447 -9 -10 -210 -372 -447
-807 -305 -559 -431 -799 -431 -821 0 -39 36 -74 76 -74 20 0 284 139 819 431
435 237 797 438 807 447 9 9 210 372 447 807 305 559 431 799 431 821 0 39
-36 74 -76 74 -20 0 -283 -138 -819 -431z m-183 -1200 c-14 -13 -1205 -659
-1209 -656 -1 2 146 277 328 611 l332 608 278 -278 c153 -153 275 -281 271
-285z"/>
<path d="M3845 3351 c-58 -24 -60 -69 -7 -181 90 -192 134 -388 135 -595 1
-156 -16 -276 -55 -408 -138 -468 -497 -827 -965 -965 -132 -39 -252 -56 -408
-55 -209 1 -394 43 -601 137 -100 46 -130 48 -160 14 -22 -23 -23 -80 -3 -104
18 -23 171 -94 274 -127 115 -38 206 -58 320 -71 l100 -11 5 -142 c4 -120 8
-144 24 -162 29 -32 88 -29 115 5 19 24 21 40 21 160 0 154 -17 135 135 153
194 23 419 101 587 203 419 253 704 683 759 1143 18 152 -1 135 153 135 120 0
136 2 160 21 34 27 37 86 5 115 -18 16 -42 20 -162 24 l-142 5 -11 100 c-13
114 -33 205 -71 320 -31 96 -104 255 -124 272 -21 17 -61 23 -84 14z"/>
</g>
</svg>
